<svg width="11" height="11" viewBox="0 0 11 11" fill="none" xmlns="http://www.w3.org/2000/svg">
<mask id="mask0_58_219" style="mask-type:alpha" maskUnits="userSpaceOnUse" x="0" y="0" width="11" height="11">
<path d="M5.50946 10.8835C8.39701 10.8835 10.7378 8.5497 10.7378 5.67094C10.7378 2.79218 8.39701 0.458496 5.50946 0.458496C2.6219 0.458496 0.281067 2.79218 0.281067 5.67094C0.281067 8.5497 2.6219 10.8835 5.50946 10.8835Z" fill="url(#paint0_linear_58_219)"/>
</mask>
<g mask="url(#mask0_58_219)">
<path d="M5.50946 10.8835C8.39701 10.8835 10.7378 8.5497 10.7378 5.67094C10.7378 2.79218 8.39701 0.458496 5.50946 0.458496C2.6219 0.458496 0.281067 2.79218 0.281067 5.67094C0.281067 8.5497 2.6219 10.8835 5.50946 10.8835Z" fill="url(#paint1_linear_58_219)"/>
</g>
<defs>
<linearGradient id="paint0_linear_58_219" x1="55.2771" y1="131.592" x2="-16.1245" y2="-50.2115" gradientUnits="userSpaceOnUse">
<stop stop-color="white"/>
<stop offset="1" stop-color="white"/>
</linearGradient>
<linearGradient id="paint1_linear_58_219" x1="55.2771" y1="131.592" x2="-16.1245" y2="-50.2115" gradientUnits="userSpaceOnUse">
<stop stop-color="white"/>
<stop offset="1" stop-color="white"/>
</linearGradient>
</defs>
</svg>
